<svg width="271" height="47" viewBox="0 0 271 47" fill="none" xmlns="http://www.w3.org/2000/svg">
<path d="M23.9272 38.3515V11.2H37.0627C40.4383 11.2 42.9578 11.8594 44.6211 13.1782C46.2844 14.4711 47.1161 16.1778 47.1161 18.2982C47.1161 19.6946 46.7614 20.9228 46.0521 21.983C45.3672 23.0174 44.3887 23.8449 43.1168 24.4655C41.8693 25.0602 40.3772 25.3576 38.6404 25.3576L39.3743 23.4958C41.1844 23.4958 42.7621 23.7931 44.1074 24.3879C45.4528 24.9568 46.4924 25.7972 47.2262 26.9091C47.9845 27.9952 48.3636 29.3269 48.3636 30.9043C48.3636 33.2574 47.4586 35.0933 45.6485 36.4121C43.8628 37.7051 41.2455 38.3515 37.7965 38.3515H23.9272ZM31.1187 32.8049H37.2095C38.457 32.8049 39.3987 32.5851 40.0347 32.1455C40.6951 31.68 41.0254 30.9818 41.0254 30.0509C41.0254 29.12 40.6951 28.4348 40.0347 27.9952C39.3987 27.5297 38.457 27.297 37.2095 27.297H30.6051V21.983H36.1087C37.3318 21.983 38.2491 21.7632 38.8606 21.3237C39.4721 20.8841 39.7779 20.2247 39.7779 19.3455C39.7779 18.4663 39.4721 17.8198 38.8606 17.4061C38.2491 16.9665 37.3318 16.7467 36.1087 16.7467H31.1187V32.8049Z" fill="#272727"/>
<rect y="11.2" width="24.4364" height="27.1515" fill="#272727"/>
<path d="M24.4364 38.3515V11.2H12.3129C9.8882 11.2 7.80448 11.6008 6.06174 12.4024C4.29373 13.2041 2.92984 14.3677 1.97006 15.8933C1.01029 17.3931 0.530402 19.1774 0.530402 21.2461C0.530402 23.2889 1.01029 25.0602 1.97006 26.56C2.92984 28.034 4.29373 29.1717 6.06174 29.9733C7.80448 30.7491 9.8882 31.137 12.3129 31.137H20.2689L16.935 27.9176V38.3515H24.4364ZM8.0318 38.3515L14.6239 28.4606H6.63002L0 38.3515H8.0318ZM16.935 28.7321L20.2689 25.2024H12.7675C11.2016 25.2024 10.0397 24.8533 9.28203 24.1552C8.49906 23.457 8.10757 22.4873 8.10757 21.2461C8.10757 19.979 8.49906 18.9964 9.28203 18.2982C10.0397 17.6 11.2016 17.2509 12.7675 17.2509H20.2689L16.935 13.7212V28.7321Z" fill="white"/>
<path d="M63.92 39.56C61.68 39.56 59.6133 39.2 57.72 38.48C55.8267 37.76 54.1733 36.7467 52.76 35.44C51.3733 34.1067 50.2933 32.56 49.52 30.8C48.7467 29.04 48.36 27.1067 48.36 25C48.36 22.8933 48.7467 20.96 49.52 19.2C50.2933 17.44 51.3733 15.9067 52.76 14.6C54.1733 13.2667 55.8267 12.24 57.72 11.52C59.6133 10.8 61.68 10.44 63.92 10.44C66.1867 10.44 68.2533 10.8 70.12 11.52C72.0133 12.24 73.6533 13.2667 75.04 14.6C76.4267 15.9067 77.5067 17.44 78.28 19.2C79.08 20.96 79.48 22.8933 79.48 25C79.48 27.1067 79.08 29.0533 78.28 30.84C77.5067 32.6 76.4267 34.1333 75.04 35.44C73.6533 36.7467 72.0133 37.76 70.12 38.48C68.2533 39.2 66.1867 39.56 63.92 39.56ZM63.92 33C64.9867 33 65.9733 32.8133 66.88 32.44C67.8133 32.0667 68.6133 31.5333 69.28 30.84C69.9733 30.12 70.5067 29.2667 70.88 28.28C71.28 27.2933 71.48 26.2 71.48 25C71.48 23.7733 71.28 22.68 70.88 21.72C70.5067 20.7333 69.9733 19.8933 69.28 19.2C68.6133 18.48 67.8133 17.9333 66.88 17.56C65.9733 17.1867 64.9867 17 63.92 17C62.8533 17 61.8533 17.1867 60.92 17.56C60.0133 17.9333 59.2133 18.48 58.52 19.2C57.8533 19.8933 57.32 20.7333 56.92 21.72C56.5467 22.68 56.36 23.7733 56.36 25C56.36 26.2 56.5467 27.2933 56.92 28.28C57.32 29.2667 57.8533 30.12 58.52 30.84C59.2133 31.5333 60.0133 32.0667 60.92 32.44C61.8533 32.8133 62.8533 33 63.92 33ZM90.2681 39.56C87.9748 39.56 85.7615 39.28 83.6281 38.72C81.5215 38.1333 79.8015 37.3867 78.4681 36.48L81.0681 30.64C82.3215 31.44 83.7615 32.1067 85.3881 32.64C87.0415 33.1467 88.6815 33.4 90.3081 33.4C91.4015 33.4 92.2815 33.3067 92.9481 33.12C93.6148 32.9067 94.0948 32.64 94.3881 32.32C94.7081 31.9733 94.8681 31.5733 94.8681 31.12C94.8681 30.48 94.5748 29.9733 93.9881 29.6C93.4015 29.2267 92.6415 28.92 91.7081 28.68C90.7748 28.44 89.7348 28.2 88.5881 27.96C87.4681 27.72 86.3348 27.4133 85.1881 27.04C84.0681 26.6667 83.0415 26.1867 82.1081 25.6C81.1748 24.9867 80.4148 24.2 79.8281 23.24C79.2415 22.2533 78.9481 21.0133 78.9481 19.52C78.9481 17.84 79.4015 16.32 80.3081 14.96C81.2415 13.6 82.6281 12.5067 84.4681 11.68C86.3081 10.8533 88.6015 10.44 91.3481 10.44C93.1881 10.44 94.9881 10.6533 96.7481 11.08C98.5348 11.48 100.121 12.08 101.508 12.88L99.0681 18.76C97.7348 18.04 96.4148 17.5067 95.1081 17.16C93.8015 16.7867 92.5348 16.6 91.3081 16.6C90.2148 16.6 89.3348 16.72 88.6681 16.96C88.0015 17.1733 87.5215 17.4667 87.2281 17.84C86.9348 18.2133 86.7881 18.64 86.7881 19.12C86.7881 19.7333 87.0681 20.2267 87.6281 20.6C88.2148 20.9467 88.9748 21.24 89.9081 21.48C90.8681 21.6933 91.9081 21.92 93.0281 22.16C94.1748 22.4 95.3081 22.7067 96.4281 23.08C97.5748 23.4267 98.6148 23.9067 99.5481 24.52C100.481 25.1067 101.228 25.8933 101.788 26.88C102.375 27.84 102.668 29.0533 102.668 30.52C102.668 32.1467 102.201 33.6533 101.268 35.04C100.361 36.4 98.9881 37.4933 97.1481 38.32C95.3348 39.1467 93.0415 39.56 90.2681 39.56ZM112.967 39.56C110.673 39.56 108.46 39.28 106.327 38.72C104.22 38.1333 102.5 37.3867 101.167 36.48L103.767 30.64C105.02 31.44 106.46 32.1067 108.087 32.64C109.74 33.1467 111.38 33.4 113.007 33.4C114.1 33.4 114.98 33.3067 115.647 33.12C116.313 32.9067 116.793 32.64 117.087 32.32C117.407 31.9733 117.567 31.5733 117.567 31.12C117.567 30.48 117.273 29.9733 116.687 29.6C116.1 29.2267 115.34 28.92 114.407 28.68C113.473 28.44 112.433 28.2 111.287 27.96C110.167 27.72 109.033 27.4133 107.887 27.04C106.767 26.6667 105.74 26.1867 104.807 25.6C103.873 24.9867 103.113 24.2 102.527 23.24C101.94 22.2533 101.647 21.0133 101.647 19.52C101.647 17.84 102.1 16.32 103.007 14.96C103.94 13.6 105.327 12.5067 107.167 11.68C109.007 10.8533 111.3 10.44 114.047 10.44C115.887 10.44 117.687 10.6533 119.447 11.08C121.233 11.48 122.82 12.08 124.207 12.88L121.767 18.76C120.433 18.04 119.113 17.5067 117.807 17.16C116.5 16.7867 115.233 16.6 114.007 16.6C112.913 16.6 112.033 16.72 111.367 16.96C110.7 17.1733 110.22 17.4667 109.927 17.84C109.633 18.2133 109.487 18.64 109.487 19.12C109.487 19.7333 109.767 20.2267 110.327 20.6C110.913 20.9467 111.673 21.24 112.607 21.48C113.567 21.6933 114.607 21.92 115.727 22.16C116.873 22.4 118.007 22.7067 119.127 23.08C120.273 23.4267 121.313 23.9067 122.247 24.52C123.18 25.1067 123.927 25.8933 124.487 26.88C125.073 27.84 125.367 29.0533 125.367 30.52C125.367 32.1467 124.9 33.6533 123.967 35.04C123.06 36.4 121.687 37.4933 119.847 38.32C118.033 39.1467 115.74 39.56 112.967 39.56ZM148.306 39.24C146.172 39.24 144.199 38.8933 142.386 38.2C140.599 37.48 139.039 36.48 137.706 35.2C136.399 33.92 135.372 32.4133 134.626 30.68C133.906 28.9467 133.546 27.0533 133.546 25C133.546 22.9467 133.906 21.0533 134.626 19.32C135.372 17.5867 136.412 16.08 137.746 14.8C139.079 13.52 140.639 12.5333 142.426 11.84C144.239 11.12 146.212 10.76 148.346 10.76C150.479 10.76 152.426 11.0933 154.186 11.76C155.972 12.4267 157.492 13.44 158.746 14.8L156.906 16.68C155.732 15.5067 154.439 14.6667 153.026 14.16C151.612 13.6533 150.092 13.4 148.466 13.4C146.732 13.4 145.132 13.6933 143.666 14.28C142.226 14.84 140.959 15.6533 139.866 16.72C138.799 17.76 137.959 18.9867 137.346 20.4C136.759 21.7867 136.466 23.32 136.466 25C136.466 26.6533 136.759 28.1867 137.346 29.6C137.959 31.0133 138.799 32.2533 139.866 33.32C140.959 34.36 142.226 35.1733 143.666 35.76C145.132 36.32 146.719 36.6 148.426 36.6C150.026 36.6 151.532 36.36 152.946 35.88C154.386 35.4 155.706 34.5867 156.906 33.44L158.586 35.68C157.252 36.8533 155.692 37.7467 153.906 38.36C152.119 38.9467 150.252 39.24 148.306 39.24ZM155.746 35.32V25H158.586V35.68L155.746 35.32ZM163.763 39V11H174.243C176.616 11 178.656 11.3867 180.363 12.16C182.07 12.9067 183.376 14 184.283 15.44C185.216 16.8533 185.683 18.5733 185.683 20.6C185.683 22.5733 185.216 24.28 184.283 25.72C183.376 27.1333 182.07 28.2267 180.363 29C178.656 29.7467 176.616 30.12 174.243 30.12H165.403L166.723 28.76V39H163.763ZM182.883 39L175.683 28.84H178.883L186.123 39H182.883ZM166.723 29L165.403 27.6H174.163C176.963 27.6 179.083 26.9867 180.523 25.76C181.99 24.5333 182.723 22.8133 182.723 20.6C182.723 18.36 181.99 16.6267 180.523 15.4C179.083 14.1733 176.963 13.56 174.163 13.56H165.403L166.723 12.16V29ZM201.709 39.24C199.603 39.24 197.643 38.8933 195.829 38.2C194.043 37.48 192.483 36.48 191.149 35.2C189.843 33.8933 188.816 32.3867 188.069 30.68C187.349 28.9467 186.989 27.0533 186.989 25C186.989 22.9467 187.349 21.0667 188.069 19.36C188.816 17.6267 189.843 16.12 191.149 14.84C192.483 13.5333 194.043 12.5333 195.829 11.84C197.616 11.12 199.576 10.76 201.709 10.76C203.816 10.76 205.763 11.12 207.549 11.84C209.336 12.5333 210.883 13.52 212.189 14.8C213.523 16.08 214.549 17.5867 215.269 19.32C216.016 21.0533 216.389 22.9467 216.389 25C216.389 27.0533 216.016 28.9467 215.269 30.68C214.549 32.4133 213.523 33.92 212.189 35.2C210.883 36.48 209.336 37.48 207.549 38.2C205.763 38.8933 203.816 39.24 201.709 39.24ZM201.709 36.6C203.389 36.6 204.936 36.32 206.349 35.76C207.789 35.1733 209.029 34.36 210.069 33.32C211.136 32.2533 211.963 31.0267 212.549 29.64C213.136 28.2267 213.429 26.68 213.429 25C213.429 23.32 213.136 21.7867 212.549 20.4C211.963 18.9867 211.136 17.76 210.069 16.72C209.029 15.6533 207.789 14.84 206.349 14.28C204.936 13.6933 203.389 13.4 201.709 13.4C200.029 13.4 198.469 13.6933 197.029 14.28C195.589 14.84 194.336 15.6533 193.269 16.72C192.229 17.76 191.403 18.9867 190.789 20.4C190.203 21.7867 189.909 23.32 189.909 25C189.909 26.6533 190.203 28.1867 190.789 29.6C191.403 31.0133 192.229 32.2533 193.269 33.32C194.336 34.36 195.589 35.1733 197.029 35.76C198.469 36.32 200.029 36.6 201.709 36.6ZM231.104 39.24C227.531 39.24 224.717 38.2133 222.664 36.16C220.611 34.1067 219.584 31.0667 219.584 27.04V11H222.544V26.92C222.544 30.2267 223.291 32.6667 224.784 34.24C226.277 35.8133 228.384 36.6 231.104 36.6C233.851 36.6 235.971 35.8133 237.464 34.24C238.957 32.6667 239.704 30.2267 239.704 26.92V11H242.584V27.04C242.584 31.0667 241.557 34.1067 239.504 36.16C237.477 38.2133 234.677 39.24 231.104 39.24ZM248.304 39V11H258.784C261.157 11 263.197 11.3867 264.904 12.16C266.61 12.9067 267.917 14 268.824 15.44C269.757 16.8533 270.224 18.5733 270.224 20.6C270.224 22.5733 269.757 24.28 268.824 25.72C267.917 27.1333 266.61 28.2267 264.904 29C263.197 29.7733 261.157 30.16 258.784 30.16H249.944L251.264 28.76V39H248.304ZM251.264 29L249.944 27.56H258.704C261.504 27.56 263.624 26.96 265.064 25.76C266.53 24.5333 267.264 22.8133 267.264 20.6C267.264 18.36 266.53 16.6267 265.064 15.4C263.624 14.1733 261.504 13.56 258.704 13.56H249.944L251.264 12.16V29Z" fill="#272727"/>
</svg>
