<svg width="262" height="67" viewBox="0 0 262 67" fill="none" xmlns="http://www.w3.org/2000/svg">
<path d="M38.0259 53.6796V11.4285H58.4663C63.7191 11.4285 67.6397 12.4546 70.2281 14.5068C72.8164 16.5187 74.1106 19.1745 74.1106 22.4741C74.1106 24.647 73.5587 26.5584 72.4548 28.2082C71.389 29.8178 69.8665 31.1054 67.8871 32.0711C65.9459 32.9966 63.6239 33.4594 60.9214 33.4594L62.0633 30.5622C64.8801 30.5622 67.3352 31.0249 69.4287 31.9504C71.5222 32.8357 73.14 34.1435 74.2819 35.8737C75.4619 37.5638 76.0519 39.6361 76.0519 42.0907C76.0519 45.7524 74.6435 48.6094 71.8268 50.6616C69.0481 52.6736 64.9752 53.6796 59.6082 53.6796H38.0259ZM49.2167 45.0483H58.6947C60.6359 45.0483 62.1014 44.7062 63.091 44.0222C64.1188 43.2979 64.6326 42.2114 64.6326 40.7628C64.6326 39.3142 64.1188 38.2479 63.091 37.5638C62.1014 36.8395 60.6359 36.4773 58.6947 36.4773H48.4174V28.2082H56.9818C58.885 28.2082 60.3124 27.8662 61.264 27.1821C62.2156 26.498 62.6914 25.4719 62.6914 24.1038C62.6914 22.7357 62.2156 21.7297 61.264 21.0859C60.3124 20.4018 58.885 20.0598 56.9818 20.0598H49.2167V45.0483Z" fill="black"/>
<rect y="11.4285" width="38.026" height="42.2511" fill="#276902"/>
<path d="M38.026 53.6796V11.4285H19.1604C15.3873 11.4285 12.1447 12.0522 9.4328 13.2996C6.68157 14.547 4.55919 16.3578 3.06566 18.7319C1.57213 21.0657 0.82537 23.8422 0.82537 27.0614C0.82537 30.2403 1.57213 32.9966 3.06566 35.3305C4.55919 37.6241 6.68157 39.3947 9.4328 40.6421C12.1447 41.8493 15.3873 42.4528 19.1604 42.4528H31.5409L26.3529 37.4431V53.6796H38.026ZM12.4985 53.6796L22.7566 38.2881H10.3171L0 53.6796H12.4985ZM26.3529 38.7106L31.5409 33.218H19.8678C17.431 33.218 15.6231 32.6747 14.444 31.5883C13.2256 30.5018 12.6164 28.9928 12.6164 27.0614C12.6164 25.0897 13.2256 23.5606 14.444 22.4741C15.6231 21.3877 17.431 20.8444 19.8678 20.8444H31.5409L26.3529 15.3518V38.7106Z" fill="white"/>
<path d="M84.3208 53L102.031 14.5H104.836L122.546 53H119.521L102.801 16.26H104.011L87.3458 53H84.3208ZM90.8108 42.165L91.7458 39.8H114.791L115.726 42.165H90.8108ZM124.255 53V12.19H127.005V53H124.255ZM146.131 63.89C143.528 63.89 141.053 63.4867 138.706 62.68C136.359 61.8733 134.453 60.755 132.986 59.325L134.471 57.235C135.901 58.555 137.606 59.5817 139.586 60.315C141.603 61.0483 143.766 61.415 146.076 61.415C149.926 61.415 152.749 60.5167 154.546 58.72C156.379 56.9233 157.296 54.1 157.296 50.25V42.275L157.846 37.985L157.406 33.695V24.29H160.046V49.92C160.046 54.7233 158.873 58.2433 156.526 60.48C154.216 62.7533 150.751 63.89 146.131 63.89ZM145.361 51.955C142.648 51.955 140.209 51.3683 138.046 50.195C135.919 48.985 134.214 47.335 132.931 45.245C131.684 43.1183 131.061 40.6983 131.061 37.985C131.061 35.235 131.684 32.815 132.931 30.725C134.214 28.635 135.919 27.0033 138.046 25.83C140.209 24.6567 142.648 24.07 145.361 24.07C147.964 24.07 150.293 24.6383 152.346 25.775C154.436 26.875 156.086 28.47 157.296 30.56C158.506 32.6133 159.111 35.0883 159.111 37.985C159.111 40.845 158.506 43.32 157.296 45.41C156.086 47.5 154.436 49.1133 152.346 50.25C150.293 51.3867 147.964 51.955 145.361 51.955ZM145.581 49.48C147.891 49.48 149.926 49.0033 151.686 48.05C153.446 47.06 154.821 45.7033 155.811 43.98C156.838 42.22 157.351 40.2217 157.351 37.985C157.351 35.7117 156.838 33.7133 155.811 31.99C154.821 30.2667 153.446 28.9283 151.686 27.975C149.926 27.0217 147.891 26.545 145.581 26.545C143.344 26.545 141.328 27.0217 139.531 27.975C137.771 28.9283 136.378 30.2667 135.351 31.99C134.361 33.7133 133.866 35.7117 133.866 37.985C133.866 40.2217 134.361 42.22 135.351 43.98C136.378 45.7033 137.771 47.06 139.531 48.05C141.328 49.0033 143.344 49.48 145.581 49.48ZM178.946 53.22C176.049 53.22 173.483 52.5967 171.246 51.35C169.046 50.1033 167.304 48.38 166.021 46.18C164.774 43.98 164.151 41.4683 164.151 38.645C164.151 35.785 164.738 33.2733 165.911 31.11C167.121 28.91 168.771 27.1867 170.861 25.94C172.951 24.6933 175.298 24.07 177.901 24.07C180.504 24.07 182.833 24.675 184.886 25.885C186.976 27.095 188.608 28.8 189.781 31C190.991 33.1633 191.596 35.675 191.596 38.535C191.596 38.645 191.578 38.7733 191.541 38.92C191.541 39.03 191.541 39.1583 191.541 39.305H166.186V37.16H190.056L188.956 38.205C188.993 35.9683 188.516 33.97 187.526 32.21C186.573 30.4133 185.271 29.02 183.621 28.03C181.971 27.0033 180.064 26.49 177.901 26.49C175.774 26.49 173.868 27.0033 172.181 28.03C170.531 29.02 169.229 30.4133 168.276 32.21C167.323 33.97 166.846 35.9867 166.846 38.26V38.755C166.846 41.1017 167.359 43.1917 168.386 45.025C169.449 46.8217 170.898 48.2333 172.731 49.26C174.564 50.25 176.654 50.745 179.001 50.745C180.834 50.745 182.539 50.415 184.116 49.755C185.729 49.095 187.086 48.0867 188.186 46.73L189.781 48.545C188.534 50.085 186.958 51.2583 185.051 52.065C183.181 52.835 181.146 53.22 178.946 53.22ZM195.704 53V24.29H198.344V32.155L198.069 31.275C198.875 28.965 200.232 27.1867 202.139 25.94C204.045 24.6933 206.429 24.07 209.289 24.07V26.765C209.179 26.765 209.069 26.765 208.959 26.765C208.849 26.7283 208.739 26.71 208.629 26.71C205.439 26.71 202.945 27.7183 201.149 29.735C199.352 31.715 198.454 34.4833 198.454 38.04V53H195.704ZM212.466 53V24.29H215.216V53H212.466ZM213.841 17.305C213.217 17.305 212.686 17.085 212.246 16.645C211.806 16.205 211.586 15.6917 211.586 15.105C211.586 14.4817 211.806 13.95 212.246 13.51C212.686 13.07 213.217 12.85 213.841 12.85C214.501 12.85 215.032 13.07 215.436 13.51C215.876 13.9133 216.096 14.4267 216.096 15.05C216.096 15.6733 215.876 16.205 215.436 16.645C215.032 17.085 214.501 17.305 213.841 17.305ZM240.501 53V46.455L240.391 45.465V34.685C240.391 32.0083 239.658 29.9733 238.191 28.58C236.761 27.1867 234.653 26.49 231.866 26.49C229.886 26.49 228.035 26.8383 226.311 27.535C224.625 28.195 223.176 29.0567 221.966 30.12L220.591 28.14C222.021 26.8567 223.745 25.8667 225.761 25.17C227.778 24.4367 229.886 24.07 232.086 24.07C235.643 24.07 238.375 24.9683 240.281 26.765C242.188 28.5617 243.141 31.2383 243.141 34.795V53H240.501ZM230.161 53.22C228.035 53.22 226.183 52.89 224.606 52.23C223.066 51.5333 221.875 50.5617 221.031 49.315C220.225 48.0683 219.821 46.6383 219.821 45.025C219.821 43.5583 220.151 42.2383 220.811 41.065C221.508 39.855 222.645 38.8833 224.221 38.15C225.798 37.38 227.906 36.995 230.546 36.995H241.106V39.14H230.601C227.631 39.14 225.541 39.69 224.331 40.79C223.158 41.89 222.571 43.265 222.571 44.915C222.571 46.7483 223.268 48.215 224.661 49.315C226.055 50.415 228.016 50.965 230.546 50.965C232.966 50.965 235.001 50.415 236.651 49.315C238.338 48.215 239.585 46.62 240.391 44.53L241.161 46.4C240.391 48.49 239.071 50.1583 237.201 51.405C235.368 52.615 233.021 53.22 230.161 53.22Z" fill="black"/>
</svg>
