<svg width="321" height="64" viewBox="0 0 321 64" fill="none" xmlns="http://www.w3.org/2000/svg">
<path d="M38.0259 54.6796V12.4285H58.4663C63.7191 12.4285 67.6397 13.4546 70.2281 15.5068C72.8164 17.5187 74.1106 20.1745 74.1106 23.4741C74.1106 25.647 73.5587 27.5584 72.4548 29.2082C71.389 30.8178 69.8665 32.1054 67.8871 33.0711C65.9459 33.9966 63.6239 34.4594 60.9214 34.4594L62.0633 31.5622C64.8801 31.5622 67.3352 32.0249 69.4287 32.9504C71.5222 33.8357 73.14 35.1435 74.2819 36.8737C75.4619 38.5638 76.0519 40.6361 76.0519 43.0907C76.0519 46.7524 74.6435 49.6094 71.8268 51.6616C69.0481 53.6736 64.9752 54.6796 59.6082 54.6796H38.0259ZM49.2167 46.0483H58.6947C60.6359 46.0483 62.1014 45.7062 63.091 45.0222C64.1188 44.2979 64.6326 43.2114 64.6326 41.7628C64.6326 40.3142 64.1188 39.2479 63.091 38.5638C62.1014 37.8395 60.6359 37.4773 58.6947 37.4773H48.4174V29.2082H56.9818C58.885 29.2082 60.3124 28.8662 61.264 28.1821C62.2156 27.498 62.6914 26.4719 62.6914 25.1038C62.6914 23.7357 62.2156 22.7297 61.264 22.0859C60.3124 21.4018 58.885 21.0598 56.9818 21.0598H49.2167V46.0483Z" fill="black"/>
<rect y="12.4285" width="38.026" height="42.2511" fill="#FF1129"/>
<path d="M38.026 54.6796V12.4285H19.1604C15.3873 12.4285 12.1447 13.0522 9.4328 14.2996C6.68157 15.547 4.55919 17.3578 3.06566 19.7319C1.57213 22.0657 0.82537 24.8422 0.82537 28.0614C0.82537 31.2403 1.57213 33.9966 3.06566 36.3305C4.55919 38.6241 6.68157 40.3947 9.4328 41.6421C12.1447 42.8493 15.3873 43.4528 19.1604 43.4528H31.5409L26.3529 38.4431V54.6796H38.026ZM12.4985 54.6796L22.7566 39.2881H10.3171L0 54.6796H12.4985ZM26.3529 39.7106L31.5409 34.218H19.8678C17.431 34.218 15.6231 33.6747 14.444 32.5883C13.2256 31.5018 12.6164 29.9928 12.6164 28.0614C12.6164 26.0897 13.2256 24.5606 14.444 23.4741C15.6231 22.3877 17.431 21.8444 19.8678 21.8444H31.5409L26.3529 16.3518V39.7106Z" fill="white"/>
<path d="M88.436 53V14.5H104.496C108.639 14.5 111.884 15.3433 114.231 17.03C116.578 18.7167 117.751 21.155 117.751 24.345C117.751 26.435 117.256 28.195 116.266 29.625C115.276 31.055 113.901 32.1367 112.141 32.87C110.418 33.5667 108.474 33.915 106.311 33.915L107.301 32.815C109.941 32.815 112.196 33.2 114.066 33.97C115.936 34.74 117.348 35.8583 118.301 37.325C119.291 38.7917 119.786 40.625 119.786 42.825C119.786 46.0517 118.613 48.5633 116.266 50.36C113.919 52.12 110.363 53 105.596 53H88.436ZM91.241 50.58H105.596C109.299 50.58 112.123 49.9567 114.066 48.71C116.009 47.4267 116.981 45.3917 116.981 42.605C116.981 39.855 116.009 37.8567 114.066 36.61C112.123 35.3267 109.299 34.685 105.596 34.685H90.911V32.265H104.386C107.723 32.265 110.308 31.6233 112.141 30.34C113.974 29.0567 114.891 27.1317 114.891 24.565C114.891 22.035 113.974 20.1283 112.141 18.845C110.308 17.5617 107.723 16.92 104.386 16.92H91.241V50.58ZM136.173 53.22C133.277 53.22 130.71 52.5967 128.473 51.35C126.273 50.1033 124.532 48.38 123.248 46.18C122.002 43.98 121.378 41.4683 121.378 38.645C121.378 35.785 121.965 33.2733 123.138 31.11C124.348 28.91 125.998 27.1867 128.088 25.94C130.178 24.6933 132.525 24.07 135.128 24.07C137.732 24.07 140.06 24.675 142.113 25.885C144.203 27.095 145.835 28.8 147.008 31C148.218 33.1633 148.823 35.675 148.823 38.535C148.823 38.645 148.805 38.7733 148.768 38.92C148.768 39.03 148.768 39.1583 148.768 39.305H123.413V37.16H147.283L146.183 38.205C146.22 35.9683 145.743 33.97 144.753 32.21C143.8 30.4133 142.498 29.02 140.848 28.03C139.198 27.0033 137.292 26.49 135.128 26.49C133.002 26.49 131.095 27.0033 129.408 28.03C127.758 29.02 126.457 30.4133 125.503 32.21C124.55 33.97 124.073 35.9867 124.073 38.26V38.755C124.073 41.1017 124.587 43.1917 125.613 45.025C126.677 46.8217 128.125 48.2333 129.958 49.26C131.792 50.25 133.882 50.745 136.228 50.745C138.062 50.745 139.767 50.415 141.343 49.755C142.957 49.095 144.313 48.0867 145.413 46.73L147.008 48.545C145.762 50.085 144.185 51.2583 142.278 52.065C140.408 52.835 138.373 53.22 136.173 53.22ZM152.931 53V12.19H155.681V53H152.931ZM174.807 63.89C172.203 63.89 169.728 63.4867 167.382 62.68C165.035 61.8733 163.128 60.755 161.662 59.325L163.147 57.235C164.577 58.555 166.282 59.5817 168.262 60.315C170.278 61.0483 172.442 61.415 174.752 61.415C178.602 61.415 181.425 60.5167 183.222 58.72C185.055 56.9233 185.972 54.1 185.972 50.25V42.275L186.522 37.985L186.082 33.695V24.29H188.722V49.92C188.722 54.7233 187.548 58.2433 185.202 60.48C182.892 62.7533 179.427 63.89 174.807 63.89ZM174.037 51.955C171.323 51.955 168.885 51.3683 166.722 50.195C164.595 48.985 162.89 47.335 161.607 45.245C160.36 43.1183 159.737 40.6983 159.737 37.985C159.737 35.235 160.36 32.815 161.607 30.725C162.89 28.635 164.595 27.0033 166.722 25.83C168.885 24.6567 171.323 24.07 174.037 24.07C176.64 24.07 178.968 24.6383 181.022 25.775C183.112 26.875 184.762 28.47 185.972 30.56C187.182 32.6133 187.787 35.0883 187.787 37.985C187.787 40.845 187.182 43.32 185.972 45.41C184.762 47.5 183.112 49.1133 181.022 50.25C178.968 51.3867 176.64 51.955 174.037 51.955ZM174.257 49.48C176.567 49.48 178.602 49.0033 180.362 48.05C182.122 47.06 183.497 45.7033 184.487 43.98C185.513 42.22 186.027 40.2217 186.027 37.985C186.027 35.7117 185.513 33.7133 184.487 31.99C183.497 30.2667 182.122 28.9283 180.362 27.975C178.602 27.0217 176.567 26.545 174.257 26.545C172.02 26.545 170.003 27.0217 168.207 27.975C166.447 28.9283 165.053 30.2667 164.027 31.99C163.037 33.7133 162.542 35.7117 162.542 37.985C162.542 40.2217 163.037 42.22 164.027 43.98C165.053 45.7033 166.447 47.06 168.207 48.05C170.003 49.0033 172.02 49.48 174.257 49.48ZM195.962 53V24.29H198.712V53H195.962ZM197.337 17.305C196.714 17.305 196.182 17.085 195.742 16.645C195.302 16.205 195.082 15.6917 195.082 15.105C195.082 14.4817 195.302 13.95 195.742 13.51C196.182 13.07 196.714 12.85 197.337 12.85C197.997 12.85 198.529 13.07 198.932 13.51C199.372 13.9133 199.592 14.4267 199.592 15.05C199.592 15.6733 199.372 16.205 198.932 16.645C198.529 17.085 197.997 17.305 197.337 17.305ZM217.563 53.22C215.106 53.22 212.979 52.78 211.183 51.9C209.386 50.9833 207.993 49.6267 207.003 47.83C206.049 45.9967 205.573 43.7417 205.573 41.065V24.29H208.323V40.845C208.323 44.0717 209.148 46.5283 210.798 48.215C212.448 49.9017 214.776 50.745 217.783 50.745C219.946 50.745 221.816 50.2867 223.393 49.37C224.969 48.4533 226.179 47.17 227.023 45.52C227.866 43.8333 228.288 41.8533 228.288 39.58V24.29H231.038V53H228.398V45.025L228.783 45.96C227.939 48.1967 226.528 49.975 224.548 51.295C222.604 52.5783 220.276 53.22 217.563 53.22ZM274.045 24.07C276.355 24.07 278.353 24.5283 280.04 25.445C281.763 26.325 283.101 27.6817 284.055 29.515C285.008 31.3117 285.485 33.5483 285.485 36.225V53H282.735V36.445C282.735 33.2183 281.946 30.7617 280.37 29.075C278.793 27.3883 276.593 26.545 273.77 26.545C271.606 26.545 269.736 27.0033 268.16 27.92C266.583 28.8367 265.373 30.12 264.53 31.77C263.686 33.42 263.265 35.4 263.265 37.71V53H260.515V36.445C260.515 33.2183 259.726 30.7617 258.15 29.075C256.573 27.3883 254.373 26.545 251.55 26.545C249.386 26.545 247.516 27.0033 245.94 27.92C244.363 28.8367 243.153 30.12 242.31 31.77C241.466 33.42 241.045 35.4 241.045 37.71V53H238.295V24.29H240.935V32.21L240.55 31.33C241.393 29.0933 242.805 27.3333 244.785 26.05C246.765 24.73 249.148 24.07 251.935 24.07C254.795 24.07 257.196 24.8033 259.14 26.27C261.12 27.7 262.366 29.845 262.88 32.705L261.945 32.32C262.715 29.8633 264.163 27.8833 266.29 26.38C268.416 24.84 271.001 24.07 274.045 24.07Z" fill="black"/>
</svg>
