<svg width="95" height="95" viewBox="0 0 95 95" fill="none" xmlns="http://www.w3.org/2000/svg">
<path d="M47 73.3333V20H72.8018C79.4324 20 84.3814 21.2952 87.6487 23.8857C90.9159 26.4254 92.5496 29.7778 92.5496 33.9429C92.5496 36.6857 91.8529 39.0984 90.4595 41.181C89.1141 43.2127 87.1922 44.8381 84.6937 46.0572C82.2433 47.2254 79.3123 47.8095 75.9009 47.8095L77.3423 44.1524C80.8979 44.1524 83.997 44.7365 86.6396 45.9048C89.2823 47.0222 91.3243 48.673 92.7658 50.8572C94.2553 52.9905 95 55.6064 95 58.7048C95 63.327 93.2222 66.9333 89.6667 69.5238C86.1592 72.0635 81.018 73.3333 74.2432 73.3333H47ZM61.1261 62.4381H73.0901C75.5405 62.4381 77.3904 62.0064 78.6396 61.1429C79.9369 60.2286 80.5856 58.8572 80.5856 57.0286C80.5856 55.2 79.9369 53.854 78.6396 52.9905C77.3904 52.0762 75.5405 51.6191 73.0901 51.6191H60.1171V41.181H70.9279C73.3303 41.181 75.1321 40.7492 76.3333 39.8857C77.5345 39.0222 78.1351 37.727 78.1351 36C78.1351 34.273 77.5345 33.0032 76.3333 32.1905C75.1321 31.327 73.3303 30.8952 70.9279 30.8952H61.1261V62.4381Z" fill="black"/>
<path d="M0 20H47V73.3333H0V20Z" fill="#292929"/>
<path d="M46.9999 73.3333V20H23.1859C18.4231 20 14.3301 20.7873 10.9069 22.3619C7.434 23.9365 4.75493 26.2222 2.86965 29.219C0.984384 32.1651 0.041748 35.6698 0.041748 39.7333C0.041748 43.746 0.984384 47.2254 2.86965 50.1714C4.75493 53.0667 7.434 55.3016 10.9069 56.8762C14.3301 58.4 18.4231 59.1619 23.1859 59.1619H38.8138L32.265 52.8381V73.3333H46.9999ZM14.7766 73.3333L27.7255 53.9048H12.0231L0.0418606 73.3333H14.7766ZM32.265 54.4381L38.8138 47.5048H24.079C21.003 47.5048 18.7208 46.8191 17.2324 45.4476C15.6945 44.0762 14.9255 42.1714 14.9255 39.7333C14.9255 37.2445 15.6945 35.3143 17.2324 33.9429C18.7208 32.5714 21.003 31.8857 24.079 31.8857H38.8138L32.265 24.9524V54.4381Z" fill="white"/>
</svg>
