<svg width="297" height="64" viewBox="0 0 297 64" fill="none" xmlns="http://www.w3.org/2000/svg">
<path d="M38.0259 52.6796V10.4285H58.4663C63.7191 10.4285 67.6397 11.4546 70.2281 13.5068C72.8164 15.5187 74.1106 18.1745 74.1106 21.4741C74.1106 23.647 73.5587 25.5584 72.4548 27.2082C71.389 28.8178 69.8665 30.1054 67.8871 31.0711C65.9459 31.9966 63.6239 32.4594 60.9214 32.4594L62.0633 29.5622C64.8801 29.5622 67.3352 30.0249 69.4287 30.9504C71.5222 31.8357 73.14 33.1435 74.2819 34.8737C75.4619 36.5638 76.0519 38.6361 76.0519 41.0907C76.0519 44.7524 74.6435 47.6094 71.8268 49.6616C69.0481 51.6736 64.9752 52.6796 59.6082 52.6796H38.0259ZM49.2167 44.0483H58.6947C60.6359 44.0483 62.1014 43.7062 63.091 43.0222C64.1188 42.2979 64.6326 41.2114 64.6326 39.7628C64.6326 38.3142 64.1188 37.2479 63.091 36.5638C62.1014 35.8395 60.6359 35.4773 58.6947 35.4773H48.4174V27.2082H56.9818C58.885 27.2082 60.3124 26.8662 61.264 26.1821C62.2156 25.498 62.6914 24.4719 62.6914 23.1038C62.6914 21.7357 62.2156 20.7297 61.264 20.0859C60.3124 19.4018 58.885 19.0598 56.9818 19.0598H49.2167V44.0483Z" fill="black"/>
<rect y="10.4285" width="38.026" height="42.2511" fill="#272727"/>
<path d="M38.026 52.6796V10.4285H19.1604C15.3873 10.4285 12.1447 11.0522 9.4328 12.2996C6.68157 13.547 4.55919 15.3578 3.06566 17.7319C1.57213 20.0657 0.82537 22.8422 0.82537 26.0614C0.82537 29.2403 1.57213 31.9966 3.06566 34.3305C4.55919 36.6241 6.68157 38.3947 9.4328 39.6421C12.1447 40.8493 15.3873 41.4528 19.1604 41.4528H31.5409L26.3529 36.4431V52.6796H38.026ZM12.4985 52.6796L22.7566 37.2881H10.3171L0 52.6796H12.4985ZM26.3529 37.7106L31.5409 32.218H19.8678C17.431 32.218 15.6231 31.6747 14.444 30.5883C13.2256 29.5018 12.6164 27.9928 12.6164 26.0614C12.6164 24.0897 13.2256 22.5606 14.444 21.4741C15.6231 20.3877 17.431 19.8444 19.8678 19.8444H31.5409L26.3529 14.3518V37.7106Z" fill="white"/>
<path d="M102.881 53.275C99.9843 53.275 97.3076 52.7983 94.851 51.845C92.3943 50.855 90.2493 49.48 88.416 47.72C86.6193 45.96 85.226 43.9067 84.236 41.56C83.246 39.1767 82.751 36.5733 82.751 33.75C82.751 30.9267 83.246 28.3417 84.236 25.995C85.226 23.6117 86.6376 21.54 88.471 19.78C90.3043 18.02 92.431 16.6633 94.851 15.71C97.3076 14.72 100.003 14.225 102.936 14.225C105.723 14.225 108.308 14.665 110.691 15.545C113.074 16.425 115.109 17.745 116.796 19.505L115.036 21.375C113.349 19.725 111.498 18.5517 109.481 17.855C107.501 17.1583 105.338 16.81 102.991 16.81C100.498 16.81 98.1876 17.2317 96.061 18.075C93.9343 18.9183 92.0826 20.11 90.506 21.65C88.9293 23.19 87.701 24.9867 86.821 27.04C85.9776 29.0933 85.556 31.33 85.556 33.75C85.556 36.17 85.9776 38.4067 86.821 40.46C87.701 42.5133 88.9293 44.31 90.506 45.85C92.0826 47.39 93.9343 48.5817 96.061 49.425C98.1876 50.2683 100.498 50.69 102.991 50.69C105.264 50.69 107.409 50.3417 109.426 49.645C111.479 48.9483 113.349 47.7933 115.036 46.18L116.631 48.325C114.908 49.975 112.836 51.2217 110.416 52.065C108.033 52.8717 105.521 53.275 102.881 53.275ZM113.936 48.05V33.915H116.631V48.325L113.936 48.05ZM123.695 53V24.29H126.335V32.155L126.06 31.275C126.867 28.965 128.223 27.1867 130.13 25.94C132.037 24.6933 134.42 24.07 137.28 24.07V26.765C137.17 26.765 137.06 26.765 136.95 26.765C136.84 26.7283 136.73 26.71 136.62 26.71C133.43 26.71 130.937 27.7183 129.14 29.735C127.343 31.715 126.445 34.4833 126.445 38.04V53H123.695ZM151.409 53.22C148.659 53.22 146.202 52.5967 144.039 51.35C141.912 50.1033 140.207 48.38 138.924 46.18C137.677 43.98 137.054 41.4683 137.054 38.645C137.054 35.785 137.677 33.2733 138.924 31.11C140.207 28.91 141.912 27.1867 144.039 25.94C146.202 24.6933 148.659 24.07 151.409 24.07C154.159 24.07 156.615 24.6933 158.779 25.94C160.942 27.1867 162.647 28.91 163.894 31.11C165.14 33.2733 165.764 35.785 165.764 38.645C165.764 41.4683 165.14 43.98 163.894 46.18C162.647 48.38 160.942 50.1033 158.779 51.35C156.615 52.5967 154.159 53.22 151.409 53.22ZM151.409 50.745C153.609 50.745 155.589 50.25 157.349 49.26C159.109 48.2333 160.484 46.8033 161.474 44.97C162.464 43.1367 162.959 41.0283 162.959 38.645C162.959 36.225 162.464 34.1167 161.474 32.32C160.484 30.4867 159.109 29.075 157.349 28.085C155.589 27.0583 153.609 26.545 151.409 26.545C149.209 26.545 147.229 27.0583 145.469 28.085C143.745 29.075 142.37 30.4867 141.344 32.32C140.354 34.1167 139.859 36.225 139.859 38.645C139.859 41.0283 140.354 43.1367 141.344 44.97C142.37 46.8033 143.745 48.2333 145.469 49.26C147.229 50.25 149.209 50.745 151.409 50.745ZM181.555 53.22C179.098 53.22 176.972 52.78 175.175 51.9C173.378 50.9833 171.985 49.6267 170.995 47.83C170.042 45.9967 169.565 43.7417 169.565 41.065V24.29H172.315V40.845C172.315 44.0717 173.14 46.5283 174.79 48.215C176.44 49.9017 178.768 50.745 181.775 50.745C183.938 50.745 185.808 50.2867 187.385 49.37C188.962 48.4533 190.172 47.17 191.015 45.52C191.858 43.8333 192.28 41.8533 192.28 39.58V24.29H195.03V53H192.39V45.025L192.775 45.96C191.932 48.1967 190.52 49.975 188.54 51.295C186.597 52.5783 184.268 53.22 181.555 53.22ZM216.697 53.22C214.167 53.22 211.875 52.6333 209.822 51.46C207.805 50.2867 206.192 48.6183 204.982 46.455C203.809 44.255 203.222 41.6517 203.222 38.645C203.222 35.6383 203.809 33.0533 204.982 30.89C206.192 28.69 207.805 27.0033 209.822 25.83C211.875 24.6567 214.167 24.07 216.697 24.07C219.41 24.07 221.83 24.6933 223.957 25.94C226.12 27.15 227.807 28.855 229.017 31.055C230.264 33.255 230.887 35.785 230.887 38.645C230.887 41.505 230.264 44.035 229.017 46.235C227.807 48.435 226.12 50.1583 223.957 51.405C221.83 52.615 219.41 53.22 216.697 53.22ZM202.287 63.67V24.29H204.927V33.695L204.487 38.7L205.037 43.705V63.67H202.287ZM216.532 50.745C218.732 50.745 220.712 50.25 222.472 49.26C224.232 48.2333 225.607 46.8033 226.597 44.97C227.624 43.1367 228.137 41.0283 228.137 38.645C228.137 36.225 227.624 34.1167 226.597 32.32C225.607 30.4867 224.232 29.075 222.472 28.085C220.712 27.0583 218.732 26.545 216.532 26.545C214.332 26.545 212.352 27.0583 210.592 28.085C208.869 29.075 207.494 30.4867 206.467 32.32C205.477 34.1167 204.982 36.225 204.982 38.645C204.982 41.0283 205.477 43.1367 206.467 44.97C207.494 46.8033 208.869 48.2333 210.592 49.26C212.352 50.25 214.332 50.745 216.532 50.745Z" fill="black"/>
</svg>
